<svg id="Capa_1" enable-background="new 0 0 512 512" height="512" viewBox="0 0 512 512" width="512" xmlns="http://www.w3.org/2000/svg"><g><g><g><g><path d="m491.437 289.09c-12.498-5.121-26.883-1.857-36.434 7.693l-83.216 83.217h-34.287c19.023 0 34.5-15.477 34.5-34.5s-15.477-34.5-34.5-34.5h-76.96l-36.256-18.127c-15.533-7.768-32.924-11.873-50.292-11.873-20.377 0-40.385 5.542-57.858 16.026l-26.853 16.111c-3.558 2.847-7.281 8.306-7.281 12.863v110c0 6.624 4.345 12.464 10.689 14.367l100 30c1.398.42 2.851.633 4.311.633h151.117c29.344 0 56.57-13.233 74.7-36.307l82.106-104.499c4.563-5.808 7.076-13.074 7.076-20.459.001-13.486-8.075-25.529-20.562-30.645z" fill="#ffe4c2"/></g><g><path d="m491.437 289.09c-12.498-5.121-26.883-1.857-36.434 7.693l-83.216 83.217h-34.287c19.023 0 34.5-15.477 34.5-34.5s-15.477-34.5-34.5-34.5h-51.5v170h62.117c29.344 0 56.57-13.233 74.7-36.307l82.106-104.499c4.563-5.808 7.076-13.074 7.076-20.459.001-13.486-8.075-25.529-20.562-30.645z" fill="#f2d1a5"/></g><g><path d="m96.998 316c0-19.33-15.67-35-35-35h-46.998c-8.284 0-15 6.716-15 15v60c0 8.284 6.716 15 15 15h66.998c8.284 0 15-6.716 15-15z" fill="#f1f1f4"/><path d="m0 356v110c0 8.284 6.716 15 15 15h46.998c19.33 0 35-15.67 35-35v-90z" fill="#e2dff4"/></g><path d="m371.787 380h-34.287-.687-84.813c-8.284 0-15 6.716-15 15 0 8.284 6.716 15 15 15h85.5c34.065 0 62.029-26.55 64.329-60.042z" fill="#f2d1a5"/><g><g><path d="m371.787 380h-34.287-.687-50.813v30h51.5c34.065 0 62.029-26.55 64.329-60.042z" fill="#f2bb88"/></g></g></g></g><g><g><path d="m419.756 170.096h-216.256c-4.142 0-7.5-3.358-7.5-7.5v-70c0-4.142 3.358-7.5 7.5-7.5h125.048c6.007 0 11.434 3.583 13.794 9.107l6.109 14.301h30.097l6.109-14.301c2.36-5.524 7.787-9.107 13.794-9.107h37.549c8.284 0 15 6.716 15 15v33.402c0 3.253-1.057 6.417-3.012 9.016l-16.243 21.597c-2.819 3.748-7.301 5.985-11.989 5.985z" fill="#f1f1f4"/><g><path d="m196 127.596v35c0 4.142 3.358 7.5 7.5 7.5h216.256c4.688 0 9.169-2.237 11.988-5.984l16.243-21.597c1.955-2.599 3.012-5.764 3.012-9.016v-5.902h-254.999z" fill="#e2dff4"/></g><path d="m268.5 85.096v27.5c0 8.284 6.716 15 15 15s15-6.716 15-15v-27.5z" fill="#e2dff4"/><path d="m105.899 224.193c-9.9 0-19.565-3.283-27.593-9.551-10.998-8.587-17.306-21.515-17.306-35.469v-36.577l10-15-10-15v-36.577c0-13.954 6.308-26.882 17.307-35.469s25.071-11.57 38.607-8.187l67.575 16.894c15.609 3.902 26.511 17.864 26.511 33.955v88.769c0 16.089-10.902 30.052-26.511 33.955l-67.575 16.894c-3.656.914-7.352 1.363-11.015 1.363z" fill="#5f6c75"/><g><path d="m71 127.596-10 15v36.577c0 13.954 6.308 26.882 17.306 35.469 8.028 6.268 17.693 9.551 27.593 9.551 3.663 0 7.358-.449 11.015-1.363l67.575-16.894c15.609-3.903 26.511-17.866 26.511-33.955v-44.385z" fill="#424c52"/></g><path d="m106 112.596h-45v30h45c8.284 0 15-6.716 15-15s-6.716-15-15-15z" fill="#424c52"/><g><g><path d="m61 127.596v15h45c8.284 0 15-6.716 15-15z" fill="#2d2d2d"/></g></g></g></g></g></svg>